# xmcd
#
# Track frame offsets: 
#        150
#        20393
#        39878
#        59068
#        79874
#        100060
#        125387
#        149434
#        172812
#        185829
#        199856
#        218909
#        240587
#        263546
#        281337
#        301198
#        314380
#        327676
#
# Disc length: 4710 seconds
#
# Revision: 2
# Processed by: cddbd v1.5.2PL0 Copyright (c) Steve Scherf et al.
# Submitted via: ExactAudioCopy v0.95b4
#
DISCID=00126412
DTITLE=Михаил Круг - GRAND Collection
DYEAR=2004
DGENRE=Chanson
TTITLE0=Владимирский централ
TTITLE1=Девочка-пай
TTITLE2=Мадам
TTITLE3=Селигер
TTITLE4=Владимирский централ 2 (Еврейский арестант)
TTITLE5=Мой Бог
TTITLE6=Исповедь
TTITLE7=Кресты
TTITLE8=Пусти меня мама
TTITLE9=Электричка
TTITLE10=Ностальгия о будущей любви
TTITLE11=Кольщик
TTITLE12=Чифирнуть бы ништяк
TTITLE13=Милый мой город
TTITLE14=Это имя
TTITLE15=Жиган-лимон
TTITLE16=Фраер
TTITLE17=Прокурору зелёному слава
EXTD=
EXTT0=
EXTT1=
EXTT2=
EXTT3=
EXTT4=
EXTT5=
EXTT6=
EXTT7=
EXTT8=
EXTT9=
EXTT10=
EXTT11=
EXTT12=
EXTT13=
EXTT14=
EXTT15=
EXTT16=
EXTT17=
PLAYORDER=
